<?xml version="1.0" encoding="UTF-8" standalone="no" ?>
<!DOCTYPE svg PUBLIC "-//W3C//DTD SVG 1.1//EN" "http://www.w3.org/Graphics/SVG/1.1/DTD/svg11.dtd">
<svg xmlns="http://www.w3.org/2000/svg" xmlns:xlink="http://www.w3.org/1999/xlink" version="1.1" width="518.97" height="97.22" viewBox="0 0 518.97 97.22" xml:space="preserve">
<desc>Created with Fabric.js 4.6.0</desc>
<defs>
</defs>
<g transform="matrix(1 0 0 1 513.17 382.83)" id="xoU-9PqYK6JW8XmERV1YZ"  >
</g>
<g transform="matrix(1 0 0 1 513.17 382.83)" id="2p3ey4bRhso9qiOnVkcVr"  >
</g>
<g transform="matrix(1 0 0 1 513.17 382.83)" id="unBBp9FwFwS4Jx1D5Q7vo"  >
</g>
<g transform="matrix(1 0 0 1 259.49 48.61)" id="ZYIPn4sZulknUgJV0eZEC"  >
<g style="" vector-effect="non-scaling-stroke"   >
		<g transform="matrix(1.77 0 0 1.71 -229.04 13.84)" id="pofAA3Lu99vOmkGBB5wa3"  >
<path style="stroke: #fff; stroke-width: 0; stroke-dasharray: none; stroke-linecap: butt; stroke-dashoffset: 0; stroke-linejoin: miter; stroke-miterlimit: 2; fill: #fff; fill-rule: nonzero; opacity: 1;" vector-effect="non-scaling-stroke"  transform=" translate(-377.26, 19.69)" d="M 393.713 -33.192 C 389.969 -37.512 385.21700000000004 -39.672 379.601 -39.672 C 375.85699999999997 -39.672 372.473 -38.808 369.521 -37.08 C 366.497 -35.352 364.19300000000004 -32.976 362.53700000000003 -29.951999999999998 C 360.88100000000003 -26.927999999999997 360.08900000000006 -23.471999999999998 360.08900000000006 -19.656 C 360.08900000000006 -15.911999999999999 360.88100000000003 -12.456 362.60900000000004 -9.431999999999999 C 364.33700000000005 -6.407999999999999 366.713 -4.031999999999998 369.737 -2.3039999999999985 C 372.761 -0.5759999999999985 376.14500000000004 0.2880000000000016 379.961 0.2880000000000016 C 385.14500000000004 0.2880000000000016 389.46500000000003 -1.2959999999999985 392.921 -4.535999999999998 C 393.497 -5.111999999999997 393.78499999999997 -5.759999999999998 393.78499999999997 -6.479999999999998 C 393.78499999999997 -7.415999999999998 393.28099999999995 -8.279999999999998 392.417 -9.071999999999997 C 391.84099999999995 -9.503999999999998 391.193 -9.719999999999997 390.54499999999996 -9.719999999999997 C 389.681 -9.719999999999997 388.74499999999995 -9.359999999999998 387.881 -8.711999999999996 C 385.86499999999995 -6.983999999999996 383.20099999999996 -6.191999999999997 379.96099999999996 -6.191999999999997 C 377.441 -6.191999999999997 375.20899999999995 -6.767999999999996 373.26499999999993 -7.919999999999996 C 371.3209999999999 -9.071999999999996 369.8089999999999 -10.655999999999997 368.7289999999999 -12.671999999999997 C 367.64899999999994 -14.687999999999997 367.1449999999999 -17.063999999999997 367.1449999999999 -19.656 C 367.1449999999999 -23.688 368.2969999999999 -27 370.60099999999994 -29.448 C 372.9049999999999 -31.896 375.85699999999997 -33.192 379.60099999999994 -33.192 C 381.40099999999995 -33.192 382.98499999999996 -32.832 384.42499999999995 -32.256 C 385.86499999999995 -31.68 387.16099999999994 -30.744 388.38499999999993 -29.448 C 389.10499999999996 -28.584 390.04099999999994 -28.152 391.1929999999999 -28.152 C 391.76899999999995 -28.152 392.3449999999999 -28.296 392.84899999999993 -28.656000000000002 C 393.8569999999999 -29.376 394.43299999999994 -30.240000000000002 394.43299999999994 -31.320000000000004 C 394.43299999999994 -32.040000000000006 394.1449999999999 -32.61600000000001 393.7129999999999 -33.19200000000001 z" stroke-linecap="round" />
</g>
		<g transform="matrix(1.77 0 0 1.71 -160.01 3.14)" id="9-75jNO9I6VKegNiRoYKb"  >
<path style="stroke: #fff; stroke-width: 0; stroke-dasharray: none; stroke-linecap: butt; stroke-dashoffset: 0; stroke-linejoin: miter; stroke-miterlimit: 2; fill: #fff; fill-rule: nonzero; opacity: 1;" vector-effect="non-scaling-stroke"  transform=" translate(-416.18, 25.96)" d="M 407.0735 -37.944 L 407.0735 -31.752000000000002 L 407.0735 -13.968000000000004 C 407.0735 -11.304000000000004 407.57750000000004 -8.928000000000004 408.72950000000003 -6.840000000000003 C 409.8095 -4.680000000000003 411.3215 -3.0240000000000036 413.26550000000003 -1.8000000000000034 C 415.20950000000005 -0.5760000000000034 417.3695 -3.3306690738754696e-15 419.74550000000005 -3.3306690738754696e-15 L 421.04150000000004 -3.3306690738754696e-15 C 422.26550000000003 -3.3306690738754696e-15 423.27350000000007 -0.2880000000000033 424.06550000000004 -1.0080000000000033 C 424.8575 -1.6560000000000032 425.28950000000003 -2.520000000000003 425.28950000000003 -3.600000000000003 C 425.28950000000003 -4.608000000000003 424.9295 -5.472000000000003 424.35350000000005 -6.192000000000004 C 423.77750000000003 -6.840000000000003 423.05750000000006 -7.200000000000004 422.19350000000003 -7.200000000000004 L 419.74550000000005 -7.200000000000004 C 418.16150000000005 -7.200000000000004 416.86550000000005 -7.848000000000003 415.8575000000001 -9.144000000000004 C 414.7775000000001 -10.440000000000003 414.27350000000007 -12.024000000000004 414.27350000000007 -13.968000000000004 L 414.27350000000007 -31.752000000000002 L 420.3935000000001 -31.752000000000002 C 421.40150000000006 -31.752000000000002 422.1935000000001 -32.04 422.84150000000005 -32.616 C 423.4175000000001 -33.192 423.77750000000003 -33.912 423.77750000000003 -34.775999999999996 C 423.77750000000003 -35.711999999999996 423.4175 -36.504 422.84150000000005 -37.08 C 422.19350000000003 -37.656 421.40150000000006 -37.943999999999996 420.3935000000001 -37.943999999999996 L 414.27350000000007 -37.943999999999996 L 414.27350000000007 -48.312 C 414.27350000000007 -49.32 413.91350000000006 -50.184 413.2655000000001 -50.903999999999996 C 412.54550000000006 -51.552 411.6815000000001 -51.912 410.6735000000001 -51.912 C 409.5935000000001 -51.912 408.7295000000001 -51.552 408.0815000000001 -50.903999999999996 C 407.3615000000001 -50.184 407.07350000000014 -49.31999999999999 407.07350000000014 -48.312 z" stroke-linecap="round" />
</g>
		<g transform="matrix(1.77 0 0 1.71 -96.38 13.9)" id="GCr0E4z9QvEvKksukuOH-"  >
<path style="stroke: #fff; stroke-width: 0; stroke-dasharray: none; stroke-linecap: butt; stroke-dashoffset: 0; stroke-linejoin: miter; stroke-miterlimit: 2; fill: #fff; fill-rule: nonzero; opacity: 1;" vector-effect="non-scaling-stroke"  transform=" translate(-452.07, 19.66)" d="M 471.90162 -19.656 C 471.90162 -23.328 470.96562 -26.784 469.23762 -29.808 C 467.50963 -32.832 465.13362 -35.28 462.10962 -37.008 C 459.08562 -38.736000000000004 455.77362 -39.672000000000004 452.10163 -39.672000000000004 C 448.35762 -39.672000000000004 444.97363 -38.736000000000004 441.94963 -37.008 C 438.92563 -35.28 436.54962 -32.832 434.82162 -29.808000000000003 C 433.09362 -26.784000000000002 432.22962 -23.400000000000002 432.22962 -19.656000000000006 C 432.22962 -15.912000000000006 433.02162 -12.456000000000007 434.60562 -9.432000000000006 C 436.18962 -6.408000000000006 438.42161999999996 -4.032000000000005 441.22962 -2.3040000000000056 C 444.10962 -0.5040000000000056 447.20562 0.35999999999999455 450.66163 0.35999999999999455 L 451.23762 0.35999999999999455 L 468.44561999999996 0.35999999999999455 C 469.38161999999994 0.35999999999999455 470.17362999999995 -5.440092820663267e-15 470.89361999999994 -0.6480000000000055 C 471.54161999999997 -1.2960000000000056 471.9016199999999 -2.0880000000000054 471.9016199999999 -3.0960000000000054 L 471.9016199999999 -3.6 Z M 440.94162 -12.744 C 439.78962 -14.76 439.28562 -17.064 439.28562 -19.656 C 439.28562 -22.176 439.78962 -24.479999999999997 440.94162 -26.567999999999998 C 442.09362 -28.583999999999996 443.60562 -30.24 445.54962 -31.391999999999996 C 447.49362 -32.544 449.65362 -33.19199999999999 452.10163 -33.19199999999999 C 454.47762 -33.19199999999999 456.63763 -32.54399999999999 458.58162 -31.391999999999992 C 460.52562 -30.23999999999999 462.03762 -28.583999999999993 463.18962 -26.56799999999999 C 464.26963 -24.47999999999999 464.84562 -22.17599999999999 464.84562 -19.65599999999999 C 464.84562 -17.063999999999993 464.26963 -14.759999999999991 463.18962 -12.743999999999993 C 462.03762 -10.727999999999993 460.52562 -9.071999999999992 458.58162 -7.919999999999993 C 456.63763 -6.767999999999993 454.47762 -6.191999999999993 452.10163 -6.191999999999993 C 449.65362 -6.191999999999993 447.49362 -6.767999999999993 445.54962 -7.919999999999993 C 443.60562 -9.071999999999992 442.09362 -10.727999999999993 440.94162 -12.743999999999993 z" stroke-linecap="round" />
</g>
		<g transform="matrix(1.77 0 0 1.71 -30.21 -0.55)" id="lcSxmDQjD6PP8IUPAk-Uo"  >
<path style="stroke: #fff; stroke-width: 0; stroke-dasharray: none; stroke-linecap: butt; stroke-dashoffset: 0; stroke-linejoin: miter; stroke-miterlimit: 2; fill: #fff; fill-rule: nonzero; opacity: 1;" vector-effect="non-scaling-stroke"  transform=" translate(-489.38, 28.12)" d="M 482.46987 -55.224 C 481.74987 -54.504 481.46188 -53.63999999999999 481.46188 -52.632 L 481.46188 -13.32 C 481.46188 -10.728 481.89387 -8.424 482.82988 -6.408 C 483.69387 -4.392 484.98987 -2.8080000000000003 486.64587 -1.6560000000000006 C 488.30187 -0.5040000000000007 490.17387 -6.661338147750939e-16 492.26187 -6.661338147750939e-16 L 492.40587 -6.661338147750939e-16 C 493.84587 -6.661338147750939e-16 494.99788 -0.28800000000000064 495.93387 -1.0080000000000007 C 496.79787 -1.6560000000000006 497.30187 -2.5200000000000005 497.30187 -3.6000000000000005 C 497.30187 -4.6080000000000005 496.94187 -5.472 496.36588 -6.192 C 495.78987 -6.84 494.99788 -7.2 494.06187 -7.2 L 492.26187 -7.2 C 491.18187 -7.2 490.31788 -7.776 489.66987 -8.928 C 488.94988 -10.08 488.66187 -11.520000000000001 488.66187 -13.32 L 488.66187 -52.632 C 488.66187 -53.64 488.30187 -54.504 487.65387000000004 -55.224 C 486.93387 -55.872 486.06988 -56.232 485.06187000000006 -56.232 C 483.9818700000001 -56.232 483.11788000000007 -55.872 482.46987000000007 -55.224 z" stroke-linecap="round" />
</g>
		<g transform="matrix(1.72 0 0 1.72 20.77 -0.19)" id="bSiCC-p9FAWiZr5ih_cz1"  >
<path style="stroke: #fff; stroke-width: 0; stroke-dasharray: none; stroke-linecap: butt; stroke-dashoffset: 0; stroke-linejoin: miter; stroke-miterlimit: 2; fill: #fff; fill-rule: nonzero; opacity: 1;" vector-effect="non-scaling-stroke"  transform=" translate(-523.03, 28.08)" d="M 533.07012 -37.584 C 530.40612 -39.024 527.45412 -39.744 524.14212 -39.744 C 521.69412 -39.744 519.46213 -39.312 517.3741299999999 -38.448 C 515.2141199999999 -37.584 513.4141299999999 -36.432 511.9021199999999 -34.92 L 511.9021199999999 -52.56 C 511.9021199999999 -53.64 511.5421199999999 -54.504000000000005 510.89411999999993 -55.224000000000004 C 510.1741199999999 -55.87200000000001 509.3101199999999 -56.232000000000006 508.23011999999994 -56.232000000000006 C 507.15011999999996 -56.232000000000006 506.28612999999996 -55.87200000000001 505.56611999999996 -55.224000000000004 C 504.8461199999999 -54.504000000000005 504.55812999999995 -53.64 504.55812999999995 -52.56 L 504.55812999999995 -3.6 C 504.55812999999995 -2.52 504.8461199999999 -1.6560000000000001 505.56611999999996 -0.9359999999999999 C 506.28612999999996 -0.21599999999999997 507.15011999999996 0.07200000000000006 508.23011999999994 0.07200000000000006 C 509.3101199999999 0.07200000000000006 510.17411999999996 -0.21599999999999991 510.89411999999993 -0.9359999999999999 C 511.54211999999995 -1.656 511.9021199999999 -2.52 511.9021199999999 -3.6 L 511.9021199999999 -23.904 C 511.9021199999999 -25.632 512.3341199999999 -27.144 513.2701199999999 -28.584 C 514.2061299999999 -29.951999999999998 515.5021199999999 -31.032 517.1581299999999 -31.896 C 518.8141199999999 -32.688 520.68612 -33.12 522.7021299999999 -33.12 C 526.1581299999999 -33.12 528.8941299999999 -32.111999999999995 530.9821199999999 -30.095999999999997 C 533.0701199999999 -28.08 534.1501199999999 -25.199999999999996 534.1501199999999 -21.311999999999998 L 534.1501199999999 -3.6 C 534.1501199999999 -2.52 534.4381299999999 -1.6560000000000001 535.1581299999999 -0.9359999999999999 C 535.87812 -0.21599999999999997 536.7421199999999 0.07200000000000006 537.8221299999999 0.07200000000000006 C 538.8301199999999 0.07200000000000006 539.6941199999999 -0.21599999999999991 540.4141299999999 -0.9359999999999999 C 541.1341299999999 -1.656 541.4941199999998 -2.52 541.4941199999998 -3.6 L 541.4941199999998 -21.312 C 541.4941199999998 -25.200000000000003 540.7021299999998 -28.512 539.2621199999999 -31.248 C 537.7501299999999 -33.984 535.6621299999998 -36.144 533.0701199999999 -37.584 z" stroke-linecap="round" />
</g>
		<g transform="matrix(1.72 0 0 1.72 104.31 14.24)" id="u9i89LktJVnSpFUdSWNND"  >
<path style="stroke: #fff; stroke-width: 0; stroke-dasharray: none; stroke-linecap: butt; stroke-dashoffset: 0; stroke-linejoin: miter; stroke-miterlimit: 2; fill: #fff; fill-rule: nonzero; opacity: 1;" vector-effect="non-scaling-stroke"  transform=" translate(-571.6, 19.69)" d="M 581.78488 -37.08 C 578.7608700000001 -38.808 575.37688 -39.672 571.63288 -39.672 C 567.74487 -39.672 564.36087 -38.808 561.33687 -37.08 C 558.31287 -35.352 555.93687 -33.048 554.28088 -30.023999999999997 C 552.55287 -26.999999999999996 551.76088 -23.543999999999997 551.76088 -19.656 C 551.76088 -15.767999999999999 552.5528700000001 -12.383999999999999 554.28088 -9.36 C 555.93687 -6.335999999999999 558.31287 -3.959999999999999 561.33687 -2.2319999999999993 C 564.36087 -0.5039999999999993 567.74487 0.2880000000000007 571.63288 0.2880000000000007 C 575.44888 0.2880000000000007 578.83288 -0.5039999999999993 581.85687 -2.2319999999999993 C 584.8808799999999 -3.959999999999999 587.1848799999999 -6.335999999999999 588.91287 -9.36 C 590.56888 -12.384 591.43287 -15.768 591.43287 -19.656 C 591.43287 -23.543999999999997 590.56888 -27 588.84087 -30.024 C 587.11288 -33.048 584.80887 -35.352000000000004 581.78488 -37.08 z M 565.00887 -31.464 C 566.95287 -32.616 569.18488 -33.192 571.63288 -33.192 C 574.08087 -33.192 576.24087 -32.616 578.18488 -31.464 C 580.12887 -30.311999999999998 581.64088 -28.656 582.72087 -26.64 C 583.80088 -24.552 584.37688 -22.248 584.37688 -19.656 C 584.37688 -17.064 583.80088 -14.687999999999999 582.72087 -12.671999999999999 C 581.64088 -10.655999999999999 580.12887 -9.072 578.18488 -7.919999999999999 C 576.24087 -6.767999999999999 574.08087 -6.191999999999999 571.63288 -6.191999999999999 C 569.18488 -6.191999999999999 566.95287 -6.767999999999999 565.00887 -7.919999999999999 C 563.06488 -9.072 561.55287 -10.655999999999999 560.47288 -12.671999999999999 C 559.32087 -14.687999999999999 558.81687 -17.064 558.81687 -19.656 C 558.81687 -22.247999999999998 559.32087 -24.552 560.47288 -26.64 C 561.55287 -28.656 563.06488 -30.312 565.00887 -31.464 z" stroke-linecap="round" />
</g>
		<g transform="matrix(1.72 0 0 1.72 164.9 14.24)" id="GiGVX0ShQcbQjYLxM5WqG"  >
<path style="stroke: #fff; stroke-width: 0; stroke-dasharray: none; stroke-linecap: butt; stroke-dashoffset: 0; stroke-linejoin: miter; stroke-miterlimit: 2; fill: #fff; fill-rule: nonzero; opacity: 1;" vector-effect="non-scaling-stroke"  transform=" translate(-606.83, 19.69)" d="M 604.16112 -38.376 C 603.4411299999999 -37.656 603.15313 -36.791999999999994 603.15313 -35.711999999999996 L 603.15313 -3.671999999999997 C 603.15313 -2.591999999999997 603.44113 -1.727999999999997 604.16112 -1.007999999999997 C 604.88112 -0.2879999999999969 605.74513 3.1086244689504383e-15 606.82512 3.1086244689504383e-15 C 607.90512 3.1086244689504383e-15 608.76913 -0.28799999999999687 609.48912 -1.007999999999997 C 610.13712 -1.7279999999999969 610.49712 -2.591999999999997 610.49712 -3.671999999999997 L 610.49712 -35.711999999999996 C 610.49712 -36.791999999999994 610.13712 -37.656 609.48912 -38.376 C 608.7691299999999 -39.024 607.90512 -39.384 606.82512 -39.384 C 605.74513 -39.384 604.88112 -39.024 604.16112 -38.376 z" stroke-linecap="round" />
</g>
		<g transform="matrix(1.72 0 0 1.72 225.37 0)" id="1rm8jJhbjl52xVt-2GvgT"  >
<path style="stroke: #fff; stroke-width: 0; stroke-dasharray: none; stroke-linecap: butt; stroke-dashoffset: 0; stroke-linejoin: miter; stroke-miterlimit: 2; fill: #fff; fill-rule: nonzero; opacity: 1;" vector-effect="non-scaling-stroke"  transform=" translate(-641.98, 27.97)" d="M 622.142 -19.728 C 622.142 -15.912000000000003 623.0060000000001 -12.528000000000002 624.734 -9.504000000000001 C 626.462 -6.480000000000001 628.9100000000001 -4.032000000000001 631.9340000000001 -2.304000000000001 C 634.9580000000001 -0.5760000000000012 638.3420000000001 0.2879999999999989 642.0140000000001 0.2879999999999989 L 642.3020000000001 0.2879999999999989 L 642.4460000000001 0.2879999999999989 L 658.3580000000002 0.2879999999999989 C 659.3660000000002 0.2879999999999989 660.1580000000001 -1.0547118733938987e-15 660.8060000000002 -0.6480000000000011 C 661.5260000000002 -1.3680000000000012 661.8140000000002 -2.160000000000001 661.8140000000002 -3.096000000000001 L 661.8140000000002 -18.432000000000002 L 661.8140000000002 -19.728 L 661.8140000000002 -52.56 C 661.8140000000002 -53.64 661.5260000000002 -54.504000000000005 660.8060000000002 -55.224000000000004 C 660.1580000000001 -55.87200000000001 659.2940000000002 -56.232000000000006 658.1420000000002 -56.232000000000006 C 657.1340000000001 -56.232000000000006 656.2700000000002 -55.87200000000001 655.5500000000002 -55.224000000000004 C 654.8300000000002 -54.504000000000005 654.4700000000001 -53.64 654.4700000000001 -52.56 L 654.4700000000001 -33.120000000000005 C 652.8140000000002 -35.136 650.7980000000001 -36.720000000000006 648.3500000000001 -37.944 C 645.9740000000002 -39.096000000000004 643.3820000000002 -39.672000000000004 640.5740000000002 -39.672000000000004 C 637.1180000000002 -39.672000000000004 634.0220000000002 -38.80800000000001 631.2140000000002 -37.080000000000005 C 628.4060000000002 -35.28000000000001 626.1740000000002 -32.904 624.5900000000001 -29.880000000000006 C 623.0060000000002 -26.856000000000005 622.1420000000002 -23.400000000000006 622.1420000000002 -19.72800000000001 z M 629.1980000000001 -19.728 C 629.1980000000001 -22.248 629.7740000000001 -24.552 630.926 -26.568 C 632.0780000000001 -28.584000000000003 633.59 -30.240000000000002 635.534 -31.392000000000003 C 637.478 -32.544000000000004 639.638 -33.192 642.014 -33.192 C 644.462 -33.192 646.622 -32.544 648.566 -31.392 C 650.51 -30.24 652.022 -28.584 653.102 -26.567999999999998 C 654.254 -24.552 654.7579999999999 -22.247999999999998 654.7579999999999 -19.727999999999998 C 654.7579999999999 -17.136 654.2539999999999 -14.831999999999997 653.102 -12.815999999999999 C 652.0219999999999 -10.727999999999998 650.51 -9.072 648.566 -7.919999999999999 C 646.6220000000001 -6.767999999999999 644.462 -6.191999999999999 642.014 -6.191999999999999 C 639.638 -6.191999999999999 637.4780000000001 -6.767999999999999 635.534 -7.919999999999999 C 633.59 -9.072 632.078 -10.727999999999998 630.926 -12.815999999999999 C 629.774 -14.831999999999999 629.1980000000001 -17.136 629.1980000000001 -19.727999999999998 z" stroke-linecap="round" />
</g>
</g>
</g>
</svg>