<?xml version="1.0" standalone="no"?>
<!DOCTYPE svg PUBLIC "-//W3C//DTD SVG 20010904//EN"
 "http://www.w3.org/TR/2001/REC-SVG-20010904/DTD/svg10.dtd">
<svg version="1.0" xmlns="http://www.w3.org/2000/svg"
 width="200.000000pt" height="200.000000pt" viewBox="0 0 200.000000 200.000000"
 preserveAspectRatio="xMidYMid meet">
<metadata>
Created by potrace 1.16, written by Peter Selinger 2001-2019
</metadata>
<g transform="translate(0.000000,200.000000) scale(0.100000,-0.100000)"
fill="#fff" stroke="none">
<path d="M881 1689 c-147 -28 -262 -90 -371 -199 -87 -86 -129 -152 -168 -260
-60 -163 -51 -355 23 -516 84 -184 234 -316 433 -382 l77 -26 410 0 410 -1 0
400 c0 452 -2 462 -77 615 -33 68 -58 102 -127 170 -94 93 -174 142 -296 180
-77 24 -238 33 -314 19z m259 -205 c160 -45 292 -176 342 -338 20 -64 22 -94
22 -306 1 -227 0 -236 -22 -272 -42 -68 -68 -74 -323 -72 -248 1 -311 11 -403
64 -165 94 -258 252 -258 440 -1 121 28 207 104 308 120 161 338 232 538 176z"/>
<path d="M713 1083 c-30 -6 -63 -49 -63 -84 0 -74 98 -111 146 -55 57 65 3
155 -83 139z"/>
<path d="M970 1082 c-70 -25 -71 -136 0 -160 44 -16 96 6 107 45 11 41 11 45
-3 74 -17 35 -66 54 -104 41z"/>
<path d="M1234 1079 c-54 -20 -70 -90 -31 -135 49 -57 147 -20 147 56 0 56
-64 99 -116 79z"/>
</g>
</svg>
